<svg xmlns="http://www.w3.org/2000/svg" width="282.138" height="341.894" viewBox="0 0 282.138 341.894">
  <g id="boucle-unique" transform="translate(-1131.668 66.102)">
    <path id="Soustraction_90" data-name="Soustraction 90" d="M402,378.168V326.724a101.39,101.39,0,1,0,0-202.78V72a154.286,154.286,0,0,1,30.609,3.11,152.3,152.3,0,0,1,54.752,23.034A153.537,153.537,0,0,1,542.839,165.5a152.283,152.283,0,0,1,8.922,28.736,154.537,154.537,0,0,1,0,61.7,152.232,152.232,0,0,1-23.04,54.739,153.554,153.554,0,0,1-67.369,55.463,152.346,152.346,0,0,1-28.743,8.92A154.29,154.29,0,0,1,402,378.168Z" transform="matrix(-0.875, 0.485, -0.485, -0.875, 1800.31, 69.758)" fill="#4ab8a5"/>
  </g>
</svg>
