<svg preserveAspectRatio="none"  xmlns="http://www.w3.org/2000/svg" width="1366" height="406.587" viewBox="0 0 1366 406.587">
  <g id="double-boucle" transform="translate(-250.162 -4094.319)">
    <path id="Intersection_49" data-name="Intersection 49" d="M208.742,392.656q-6.133-.213-12.264-.72v-92.58A164.534,164.534,0,0,0,373.583,83.892h96.19q1.146,5.581,2.04,11.2a257.105,257.105,0,0,1-3.5,98.406,257.615,257.615,0,0,1-40.177,89.976,256.186,256.186,0,0,1-33.016,38.268A260.184,260.184,0,0,1,307.2,376.679a255.918,255.918,0,0,1-89.546,16.132Q213.2,392.811,208.742,392.656Z" transform="translate(53.684 4010.428)" opacity="0.45"/>
    <path id="Intersection_50" data-name="Intersection 50" d="M1081.512,284.8a254.286,254.286,0,0,1,21.235-45.971,250.86,250.86,0,0,1,65.137-72.882,252.405,252.405,0,0,1,134.4-50.294,250.023,250.023,0,0,1,49.438,1.491q7.156.932,14.279,2.283v93.021c-82.14-24.606-170.119,20.086-198.33,102.018Z" transform="translate(237.824 4143.319)"  opacity="0.45"/>
  </g>
</svg>
